<?xml version="1.0" encoding="utf-8"?>
<!-- Generator: Adobe Illustrator 18.1.0, SVG Export Plug-In . SVG Version: 6.00 Build 0)  -->
<svg version="1.1" id="Layer_1" xmlns="http://www.w3.org/2000/svg" xmlns:xlink="http://www.w3.org/1999/xlink" x="0px" y="0px"
	 viewBox="0 0 2100 1200" enable-background="new 0 0 2100 1200" xml:space="preserve">
<path opacity="0.5" fill="#D7F0FF" d="M1373,418.5L1373,418.5c0-66.3-53.7-120-120-120h-228c-7.5,0-13.5-6-13.5-13.5v0
	c0-7.5,6-13.5,13.5-13.5h29.6c50.2,0,90.9-40.7,90.9-90.9v0c0-50.2-40.7-90.9-90.9-90.9H424c-50.2,0-90.9,40.7-90.9,90.9v0
	c0,50.2,40.7,90.9,90.9,90.9h214.5c7.5,0,13.5,6,13.5,13.5v0c0,7.5-6,13.5-13.5,13.5H103.1c-51.9,0-94,42.1-94,94v0
	c0,51.9,42.1,94,94,94h394.2c20.7,0,37.4,16.7,37.4,37.4v0c0,20.7-16.7,37.4-37.4,37.4H239.7c-34.4,0-62.3,27.9-62.3,62.3v0
	c0,34.4,27.9,62.3,62.3,62.3h40.5c33.3,0,60.2,27,60.2,60.2v0c0,33.3-27,60.2-60.2,60.2h-81.5c-50.2,0-90.9,40.7-90.9,90.9v0
	c0,50.2,40.7,90.9,90.9,90.9h1105.2c18.6,0,33.8-15.1,33.8-33.8v0c0-18.6-15.1-33.8-33.8-33.8h-129.3c-39,0-70.6-31.6-70.6-70.6v0
	c0-39,31.6-70.6,70.6-70.6h8.3c45.9,0,83.1-37.2,83.1-83.1v0c0-45.9-37.2-83.1-83.1-83.1h-14.5c-20.7,0-37.4-16.7-37.4-37.4v0
	c0-20.7,16.7-37.4,37.4-37.4h84.7C1319.2,538.4,1373,484.7,1373,418.5z"/>
<g opacity="0.6">
	<path fill="#D7F0FF" d="M1841.8,155.3l147.1,0c7.1,0,12.9-5.8,12.9-12.9v0c0-7.1-5.8-12.9-12.9-12.9l-147.1,0
		c-7.1,0,9.8,5.8,9.8,12.9v0C1851.6,149.5,1834.7,155.3,1841.8,155.3z"/>
	<circle fill="#D7F0FF" cx="1992.1" cy="135.7" r="19.3"/>
	<circle fill="#D7F0FF" cx="1953.6" cy="121.2" r="33.3"/>
	<circle fill="#D7F0FF" cx="1842.4" cy="130.8" r="24.2"/>
</g>
<path fill="#F9E3E1" d="M785.8,979H621.3c-17.5,0-31.7-14.2-31.7-31.7v-423c0-17.5,14.2-31.7,31.7-31.7h164.4
	c17.5,0,31.7,14.2,31.7,31.7v423C817.5,964.8,803.3,979,785.8,979z"/>
<path fill="#DEDEFF" d="M1049.5,933H859.3c-22.9,0-41.4-18.5-41.4-41.4V597h231.6c22.9,0,41.4,18.5,41.4,41.4v253.2
	C1090.9,914.5,1072.3,933,1049.5,933z"/>
<path fill="#DEDEFF" d="M574.1,997.8H325.5c-21,0-38-17-38-38V481c0-21,17-38,38-38h248.6c21,0,38,17,38,38v478.7
	C612.1,980.8,595.1,997.8,574.1,997.8z"/>
<path opacity="0.6" fill="#EAE4FF" d="M1424.5,816.9H1307c-16.7,0-30.3-13.6-30.3-30.3V532.2c0-16.7,13.6-30.3,30.3-30.3h117.5
	c16.7,0,30.3,13.6,30.3,30.3v254.4C1454.8,803.3,1441.2,816.9,1424.5,816.9z"/>
<path opacity="0.6" fill="#EAE4FF" d="M1791.2,939.4h-117.5c-16.7,0-30.3-13.6-30.3-30.3V654.8c0-16.7,13.6-30.3,30.3-30.3h117.5
	c16.7,0,30.3,13.6,30.3,30.3v254.4C1821.5,925.9,1807.9,939.4,1791.2,939.4z"/>
<g>
	<circle fill="none" stroke="#B2B2F7" stroke-width="10" stroke-miterlimit="10" cx="898.9" cy="678.3" r="184.2"/>
	<line fill="none" stroke="#B2B2F7" stroke-width="8" stroke-miterlimit="10" x1="899" y1="493" x2="899" y2="862"/>
	<line fill="none" stroke="#B2B2F7" stroke-width="8" stroke-miterlimit="10" x1="768.5" y1="808.4" x2="1029.5" y2="547.4"/>
	<line fill="none" stroke="#B2B2F7" stroke-width="8" stroke-miterlimit="10" x1="714" y1="679" x2="1083" y2="679"/>
	<line fill="none" stroke="#B2B2F7" stroke-width="8" stroke-miterlimit="10" x1="768.5" y1="547.4" x2="1029.5" y2="808.4"/>
	<g>
		<rect x="875.5" y="449.3" fill="#B1ABFF" width="4.1" height="26.2"/>
		<rect x="917.9" y="449.3" fill="#B1ABFF" width="4.1" height="26.2"/>
		<path fill="#7DCAF4" d="M900,516.7h-2.2c-15.8,0-28.7-12.8-28.7-28.7v-12.4c0-2.2,1.8-3.9,3.9-3.9h51.7c2.2,0,3.9,1.8,3.9,3.9V488
			C928.7,503.9,915.8,516.7,900,516.7z"/>
		<path fill="#98DEFF" d="M924.6,472H899v44.8c15-0.1,31-13.5,31-29.9v-11.1C930,473.6,926.8,472,924.6,472z"/>
		<path fill="#7DCAF4" d="M930.5,458.1h-63.2c-1.7,0-2.4-2-1-2.9l31.7-22.4c0.6-0.4,1.5-0.4,2.1,0l31.5,22.4
			C932.9,456.2,932.1,458.1,930.5,458.1z"/>
		<path fill="#98DEFF" d="M899.8,432.8c-0.2-0.1,0.2-0.2-0.8-0.3V458h31.5c1.7,0,2.3-1.9,0.9-2.9L899.8,432.8z"/>
		<circle fill="#EAE4FF" cx="899.5" cy="493.9" r="8.6"/>
	</g>
	<g>
		<rect x="1005.2" y="504.2" fill="#B1ABFF" width="4.1" height="26.2"/>
		<rect x="1047.6" y="504.2" fill="#B1ABFF" width="4.1" height="26.2"/>
		<path fill="#F46296" d="M1029.6,571.6h-2.2c-15.8,0-28.7-12.8-28.7-28.7v-12.4c0-2.2,1.8-3.9,3.9-3.9h51.7c2.2,0,3.9,1.8,3.9,3.9
			V543C1058.3,558.8,1045.5,571.6,1029.6,571.6z"/>
		<path fill="#FF7AA5" d="M1054.2,527H1029v44.7c16-0.1,29-13.5,29-29.9v-11.1C1058,528.5,1056.5,527,1054.2,527z"/>
		<path fill="#F46296" d="M1060.1,509.7h-63.2c-1.7,0-2.4-2-1-2.9l31.7-22.4c0.6-0.4,1.5-0.4,2.1,0l31.5,22.4
			C1062.5,507.7,1061.8,509.7,1060.1,509.7z"/>
		<path fill="#FF7AA5" d="M1029.7,484.4c-0.2-0.1,0.3-0.2-0.7-0.3V509h31.1c1.7,0,2.3-1.6,1-2.6L1029.7,484.4z"/>
		<circle fill="#EAE4FF" cx="1029.1" cy="548.8" r="8.6"/>
	</g>
	<g>
		<rect x="1060.1" y="634.7" fill="#B1ABFF" width="4.1" height="26.2"/>
		<rect x="1102.5" y="634.7" fill="#B1ABFF" width="4.1" height="26.2"/>
		<path fill="#7DCAF4" d="M1084.6,702.2h-2.2c-15.8,0-28.7-12.8-28.7-28.7v-12.4c0-2.2,1.8-3.9,3.9-3.9h51.7c2.2,0,3.9,1.8,3.9,3.9
			v12.4C1113.2,689.3,1100.4,702.2,1084.6,702.2z"/>
		<path fill="#98DEFF" d="M1109.2,657H1083v45.3c17-0.1,31-13.5,31-29.9v-11.1C1114,659,1111.4,657,1109.2,657z"/>
		<path fill="#7DCAF4" d="M1115.1,640.6h-63.2c-1.7,0-2.4-2-1-2.9l31.7-22.4c0.6-0.4,1.5-0.4,2.1,0l31.5,22.4
			C1117.4,638.6,1116.7,640.6,1115.1,640.6z"/>
		<path fill="#98DEFF" d="M1084.1,615.3c-0.2-0.1-0.1-0.2-1.1-0.3V641h32.1c1.7,0,2.1-2.2,0.8-3.1L1084.1,615.3z"/>
		<circle fill="#EAE4FF" cx="1084" cy="679.4" r="8.6"/>
	</g>
	<g>
		<rect x="691" y="634.7" fill="#B1ABFF" width="4.1" height="26.2"/>
		<rect x="733.4" y="634.7" fill="#B1ABFF" width="4.1" height="26.2"/>
		<path fill="#7DCAF4" d="M715.4,702.2h-2.2c-15.8,0-28.7-12.8-28.7-28.7v-12.4c0-2.2,1.8-3.9,3.9-3.9h51.7c2.2,0,3.9,1.8,3.9,3.9
			v12.4C744.1,689.3,731.3,702.2,715.4,702.2z"/>
		<path fill="#98DEFF" d="M740,657h-26v45.3c17-0.1,29-13.5,29-29.9v-11.1C743,659,742.3,657,740,657z"/>
		<path fill="#7DCAF4" d="M745.9,641.7h-63.2c-1.7,0-2.4-2-1-2.9l31.7-22.4c0.6-0.4,1.5-0.4,2.1,0l31.5,22.4
			C748.3,639.7,747.6,641.7,745.9,641.7z"/>
		<path fill="#98DEFF" d="M715.1,616.4c-0.2-0.1-0.1-0.2-1.1-0.3V642h31.9c1.7,0,2.2-2.2,0.8-3.1L715.1,616.4z"/>
		<circle fill="#EAE4FF" cx="714.9" cy="679.4" r="8.6"/>
	</g>
	<g>
		<rect x="746.8" y="504.2" fill="#B1ABFF" width="4.1" height="26.2"/>
		<rect x="789.2" y="504.2" fill="#B1ABFF" width="4.1" height="26.2"/>
		<path fill="#F46296" d="M771.2,571.6H769c-15.8,0-28.7-12.8-28.7-28.7v-12.4c0-2.2,1.8-3.9,3.9-3.9H796c2.2,0,3.9,1.8,3.9,3.9V543
			C799.9,558.8,787.1,571.6,771.2,571.6z"/>
		<path fill="#FF7AA5" d="M795.8,527H770v44.7c17-0.1,29-13.5,29-29.9v-11.1C799,528.5,798.1,527,795.8,527z"/>
		<path fill="#F46296" d="M801.7,509.7h-63.2c-1.7,0-2.4-2-1-2.9l31.7-22.4c0.6-0.4,1.5-0.4,2.1,0l31.5,22.4
			C804.1,507.7,803.4,509.7,801.7,509.7z"/>
		<path fill="#FF7AA5" d="M771,484.4c-0.2-0.1,0-0.2-1-0.3V509h31.7c1.7,0,2.2-1.6,0.9-2.6L771,484.4z"/>
		<circle fill="#EAE4FF" cx="770.7" cy="548.8" r="8.6"/>
	</g>
	<g>
		<rect x="1005.2" y="766.2" fill="#B1ABFF" width="4.1" height="26.2"/>
		<rect x="1047.6" y="766.2" fill="#B1ABFF" width="4.1" height="26.2"/>
		<path fill="#F46296" d="M1029.6,833.6h-2.2c-15.8,0-28.7-12.8-28.7-28.7v-12.4c0-2.2,1.8-3.9,3.9-3.9h51.7c2.2,0,3.9,1.8,3.9,3.9
			V805C1058.3,820.8,1045.5,833.6,1029.6,833.6z"/>
		<path fill="#FF7AA5" d="M1054.2,789H1029v44.7c16-0.1,29-13.5,29-29.9v-11.1C1058,790.5,1056.5,789,1054.2,789z"/>
		<path fill="#F46296" d="M1060.1,771.3h-63.2c-1.7,0-2.4-2-1-2.9l31.7-22.4c0.6-0.4,1.5-0.4,2.1,0l31.5,22.4
			C1062.5,769.3,1061.8,771.3,1060.1,771.3z"/>
		<path fill="#FF7AA5" d="M1029.7,746c-0.2-0.1,0.3-0.2-0.7-0.3V771h31.1c1.7,0,2.3-1.8,1-2.8L1029.7,746z"/>
		<circle fill="#EAE4FF" cx="1029.1" cy="810.8" r="8.6"/>
	</g>
	<g>
		<rect x="745" y="766.2" fill="#B1ABFF" width="4.1" height="26.2"/>
		<rect x="787.4" y="766.2" fill="#B1ABFF" width="4.1" height="26.2"/>
		<path fill="#C2BEFC" d="M769.4,833.6h-2.2c-15.8,0-28.7-12.8-28.7-28.7v-12.4c0-2.2,1.8-3.9,3.9-3.9h51.7c2.2,0,3.9,1.8,3.9,3.9
			V805C798.1,820.8,785.3,833.6,769.4,833.6z"/>
		<path fill="#DED9FC" d="M794,789h-25v44.7c16-0.1,28-13.5,28-29.9v-11.1C797,790.5,796.3,789,794,789z"/>
		<path fill="#C2BEFC" d="M799.9,767.2h-63.2c-1.7,0-2.4-2.1-1-3.1l31.7-23.8c0.6-0.5,1.5-0.5,2.1,0l31.5,23.8
			C802.3,765.1,801.6,767.2,799.9,767.2z"/>
		<path fill="#DED9FC" d="M769.6,740.2c-0.2-0.1,0.4-0.2-0.6-0.3V767h30.9c1.7,0,2.4-2,1.1-3L769.6,740.2z"/>
		<circle fill="#EAE4FF" cx="768.9" cy="810.8" r="8.6"/>
	</g>
	<circle fill="#A4A4FF" cx="898.9" cy="677.9" r="38.8"/>
	<circle fill="#C2BEFC" cx="898.9" cy="677.9" r="28.9"/>
	<circle fill="#A4A4FF" cx="898.9" cy="677.9" r="8.1"/>
</g>
<g>
	<path fill="#DED9FC" d="M1334.2,673.8h-144.3v-88.6c0-14,11.4-25.4,25.4-25.4h93.5c14,0,25.4,11.4,25.4,25.4V673.8z"/>
	<path fill="#CCCCFF" d="M1334.2,673.8h-57.4v-114h32c14,0,25.4,11.4,25.4,25.4V673.8z"/>
	<path fill="#DED9FC" d="M1414.6,940.5h-271.1v-281c0-24.1,19.6-43.7,43.7-43.7h183.7c24.1,0,43.7,19.6,43.7,43.7V940.5z"/>
	<path fill="#CCCCFF" d="M1414.6,940.5h-138.4V615.9h94.7c24.1,0,43.7,19.6,43.7,43.7V940.5z"/>
	<path fill="#B1ABFF" d="M1143,661.2v125.4c10-4.6,20.4-7.6,31.5-7.6h8.3c45.9,0,83.1-36.8,83.1-82.7v0.2
		c0-38.7-26.5-72.6-62.3-80.6h-14.8C1163.8,616,1143,636.2,1143,661.2z"/>
	<path fill="#B1ABFF" d="M1188.5,880.6h-0.3c-2.3,0-4.1-1.8-4.1-4.1V665.7c0-2.3,1.8-4.1,4.1-4.1h0.3c2.3,0,4.1,1.8,4.1,4.1v210.8
		C1192.6,878.7,1190.8,880.6,1188.5,880.6z"/>
	<path fill="#B1ABFF" d="M1224.1,875.6h-0.3c-2.3,0-4.1-1.8-4.1-4.1V665.7c0-2.3,1.8-4.1,4.1-4.1h0.3c2.3,0,4.1,1.8,4.1,4.1v205.8
		C1228.2,873.8,1226.4,875.6,1224.1,875.6z"/>
	<path fill="#CCCCFF" d="M1183.9,874.1c0,2.4,1.9,4.3,4.3,4.3c2.4,0,4.3-1.9,4.3-4.3l0.5-95.2l-9,0.6"/>
	<path fill="#A39CFF" d="M1192.6,778.9l0-113c0-2.4-1.9-4.3-4.3-4.3c-2.4,0-4.3,1.9-4.3,4.3l-0.1,113.7L1192.6,778.9z"/>
	<path fill="#A39CFF" d="M1228.1,765.5l0.1-99.7c0-2.4-1.9-4.3-4.3-4.3c-2.4,0-4.3,1.9-4.3,4.3l0.2,104.9L1228.1,765.5z"/>
	<path fill="#CCCCFF" d="M1228.3,765.8l-8.5,5v89.7c0,2.4,1.9,4.3,4.3,4.3c2.4,0,4.3-1.9,4.3-4.3"/>
	<path fill="#B1ABFF" d="M1184.1,665.8"/>
	<path fill="#B1ABFF" d="M1184.1,876.3"/>
	<path fill="#CCCCFF" d="M1219.6,871.3V665.8"/>
	<path fill="#CCCCFF" d="M1224.1,600.2h-0.3c-2.3,0-4.1-1.8-4.1-4.1v-11.2c0-2.3,1.8-4.1,4.1-4.1h0.3c2.3,0,4.1,1.8,4.1,4.1v11.2
		C1228.2,598.4,1226.4,600.2,1224.1,600.2z"/>
	<path fill="#BDBBFF" d="M1326.4,724.9h-0.3c-2.3,0-4.1-1.8-4.1-4.1v-55.1c0-2.3,1.8-4.1,4.1-4.1h0.3c2.3,0,4.1,1.8,4.1,4.1v55.1
		C1330.6,723.1,1328.7,724.9,1326.4,724.9z"/>
	<path fill="#BDBBFF" d="M1362,723.8h-0.3c-2.3,0-4.1-1.8-4.1-4.1v-54c0-2.3,1.8-4.1,4.1-4.1h0.3c2.3,0,4.1,1.8,4.1,4.1v54
		C1366.1,721.9,1364.3,723.8,1362,723.8z"/>
	<polyline fill="#A39CFF" points="1144,934 1144,897.5 1413,873.4 1413,912.4 1142.2,935.4 	"/>
	<polyline fill="#9290F4" points="1276,919 1276,885.1 1413,873.4 1413,912.4 1275.4,924.2 	"/>
</g>
<g>
	<path fill="#CCCCFF" d="M1902.2,582.3h-292.9c-6.2,0-11.2-5-11.2-11.2v-12.9c0-4.6,2.8-8.7,7-10.4l136-55.4
		c10.9-4.4,23.1-4.4,34,0.2l131.5,55.1c4.2,1.8,6.9,5.8,6.9,10.4v13C1913.5,577.2,1908.4,582.3,1902.2,582.3z"/>
	<rect x="1617.3" y="543.4" fill="#CCCCFF" width="35" height="208.6"/>
	<rect x="1677.1" y="543.4" fill="#CCCCFF" width="35" height="208.6"/>
	<path fill="#BDBBFF" d="M1899,570.5h-286.5c-2.1,0-3.8-1.7-3.8-3.8V566c0-2.1,1.7-3.8,3.8-3.8H1899c2.1,0,3.8,1.7,3.8,3.8v0.7
		C1902.8,568.7,1901.1,570.5,1899,570.5z"/>
	<path fill="#BDBBFF" d="M1654.3,596.9h-39.4c-3.7,0-6.8-3-6.8-6.8V589c0-3.7,3-6.8,6.8-6.8h39.4c3.7,0,6.8,3,6.8,6.8v1.2
		C1661.1,593.9,1658,596.9,1654.3,596.9z"/>
	<path fill="#BDBBFF" d="M1714,596.9h-39.4c-3.7,0-6.8-3-6.8-6.8V589c0-3.7,3-6.8,6.8-6.8h39.4c3.7,0,6.8,3,6.8,6.8v1.2
		C1720.8,593.9,1717.8,596.9,1714,596.9z"/>
	<path fill="#BDBBFF" d="M1635.3,753.3h-0.7c-2.1,0-3.9-1.7-3.9-3.9V610.4c0-2.1,1.7-3.9,3.9-3.9h0.7c2.1,0,3.9,1.7,3.9,3.9v139.1
		C1639.2,751.6,1637.4,753.3,1635.3,753.3z"/>
	<path fill="#BDBBFF" d="M1695.5,753.3h-0.7c-2.1,0-3.9-1.7-3.9-3.9V610.4c0-2.1,1.7-3.9,3.9-3.9h0.7c2.1,0,3.9,1.7,3.9,3.9v139.1
		C1699.3,751.6,1697.6,753.3,1695.5,753.3z"/>
	<circle fill="#BDBBFF" cx="1758.6" cy="526" r="14.5"/>
</g>
<path opacity="0.5" fill="#D7F0FF" d="M461.1,928.1l5.9,57.2l846.5,1.6c14-4.1,24.1-16.9,24.1-32.2c0-18.6-15.1-33.6-33.8-33.6
	h-129.3c-39,0-70.6-31.8-70.6-70.8c0-5.7,0.7-11.3,2-16.5L461.1,928.1z"/>
<g>
	<path fill="#CCCCFF" d="M1538,372.7h-94.1v-0.9c0-12.7,10.3-23,23-23h48.2c12.7,0,23,10.3,23,23V372.7z"/>
	<path fill="#BDBBFF" d="M1538,372.7h-48.4v-23.8h25.5c12.7,0,23,10.3,23,23V372.7z"/>
	<g>
		<path fill="#CCCCFF" d="M1443,372.7h97.1c23.7,0,42.9,19.2,42.9,42.9V846h-183V415.6C1400.1,391.9,1419.3,372.7,1443,372.7z"/>
		<path fill="#DED9FC" d="M1442.2,372.7h47.6V847h-90.5V415.6C1399.3,391.9,1418.5,372.7,1442.2,372.7z"/>
		<path fill="#C2BEFC" d="M1427.8,550.2h-0.3c-2.4,0-4.4-2-4.4-4.4v-29.4c0-2.4,2-4.4,4.4-4.4h0.3c2.4,0,4.4,2,4.4,4.4v29.4
			C1432.2,548.2,1430.2,550.2,1427.8,550.2z"/>
		<path fill="#C2BEFC" d="M1427.8,690.8h-0.3c-2.4,0-4.4-2-4.4-4.4V657c0-2.4,2-4.4,4.4-4.4h0.3c2.4,0,4.4,2,4.4,4.4v29.4
			C1432.2,688.8,1430.2,690.8,1427.8,690.8z"/>
		<path fill="#C2BEFC" d="M1427.8,446.9h-0.3c-2.4,0-4.4-2-4.4-4.4v-29.4c0-2.4,2-4.4,4.4-4.4h0.3c2.4,0,4.4,2,4.4,4.4v29.4
			C1432.2,444.9,1430.2,446.9,1427.8,446.9z"/>
		<path fill="#BDBBFF" d="M1552.1,446.9h-0.3c-2.4,0-4.4-2-4.4-4.4v-29.4c0-2.4,2-4.4,4.4-4.4h0.3c2.4,0,4.4,2,4.4,4.4v29.4
			C1556.4,444.9,1554.5,446.9,1552.1,446.9z"/>
		<path fill="#BDBBFF" d="M1552.1,550.6h-0.3c-2.4,0-4.4-2-4.4-4.4v-29.4c0-2.4,2-4.4,4.4-4.4h0.3c2.4,0,4.4,2,4.4,4.4v29.4
			C1556.4,548.7,1554.5,550.6,1552.1,550.6z"/>
		<path fill="#C2BEFC" d="M1464.1,413.3L1464.1,413.3c0,2.5-2,4.5-4.5,4.5l0,0c-2.5,0-4.5-2-4.5-4.5l0,0c0-2.5,2-4.5,4.5-4.5l0,0"/>
		<path fill="#C2BEFC" d="M1459.8,446.7h-0.3c-2.4,0-4.4-2-4.4-4.4V442c0-2.4,2-4.4,4.4-4.4h0.3c2.4,0,4.4,2,4.4,4.4v0.3
			C1464.1,444.8,1462.2,446.7,1459.8,446.7z"/>
		<path fill="#C2BEFC" d="M1459.8,550h-0.3c-2.4,0-4.4-2-4.4-4.4v-0.3c0-2.4,2-4.4,4.4-4.4h0.3c2.4,0,4.4,2,4.4,4.4v0.3
			C1464.1,548,1462.2,550,1459.8,550z"/>
		<path fill="#C2BEFC" d="M1461.2,690.3h-0.3c-2.4,0-4.4-2-4.4-4.4v-0.3c0-2.4,2-4.4,4.4-4.4h0.3c2.4,0,4.4,2,4.4,4.4v0.3
			C1465.5,688.4,1463.6,690.3,1461.2,690.3z"/>
		<path fill="#BDBBFF" d="M1527.1,720.2h-0.3c-2.4,0-4.4-2-4.4-4.4v-59.5c0-2.4,2-4.4,4.4-4.4h0.3c2.4,0,4.4,2,4.4,4.4v59.5
			C1531.4,718.3,1529.5,720.2,1527.1,720.2z"/>
	</g>
</g>
<g>
	<rect x="1580.5" y="687.4" fill="#9694F7" width="8.1" height="69.7"/>
	<path fill="#A39CFF" d="M1587.8,723.6h-1.2c-17.3,0-31.4-14-31.4-31.4v-72.6c0-8.7,7-15.7,15.7-15.7h1.2c8.7,0,15.7,7,15.7,15.7
		V723.6z"/>
	<ellipse fill="#A39CFF" cx="1586.1" cy="692.7" rx="30.9" ry="30.6"/>
	<ellipse fill="#A39CFF" cx="1585.3" cy="649.5" rx="21.1" ry="20.9"/>
	<path fill="#9694F7" d="M1572,604c0,0-0.5,0-0.6,0h0.1c-9,0-16.6,7.2-16.6,16.2v71.1c0,12,7,22.5,17,28V604z"/>
</g>
<g>
	<path opacity="0.5" fill="#D7F0FF" d="M1303.9,921h-129.3c-11.1,0-21.5-2.9-31.5-7.5V940h191.6C1329.3,929,1317.6,921,1303.9,921z"
		/>
</g>
<polygon fill="#EAE4FF" points="471.2,985.2 465.3,928.1 1968.2,707.9 1965.9,988 "/>
<path fill="#A39CFF" d="M1107.3,827.4l-644,96.8l7.9,62.1l842.4,1.6c13.9-4.2,24.1-16.9,24.1-32.2l0,0c0-18.6-15.1-33.6-33.8-33.6
	h-129.3c-39,0-70.6-31.8-70.6-70.8l0,0C1103.9,845.8,1106.1,832.5,1107.3,827.4z"/>
<path fill="#DED9FC" d="M1262.7,988.8h183.9v-98.5h-137.7c-25.5,0-46.2,20.7-46.2,46.2V988.8z"/>
<g>
	<path fill="#A39CFF" d="M1328.8,892.9c0-3.9-3.2-7.1-7.1-7.2l-33.1-0.6c-18.2,0.2-35.8,6.7-49.8,18.4l-10.5,8.8
		c-7.1,5.9-16.1,9.2-25.3,9.3l-28.4,0.2c-39,0-70.6-31.6-70.6-70.6c0-2.2,0.4-5.8,0.9-9.6l-484.3,73.8l-1.9-13.2l488.7-74.5
		c0-0.1,0-0.2,0.1-0.3l-644,96.8l7.9,64.2l924.1-0.5c3.2,0,5.8-2.4,6.2-5.5l0-0.2c0.4-3.7-2.5-6.9-6.2-6.9
		c-13.6,0-42.5-0.1-42.5-0.1c-37.2-17.9-78.1-62.5-78.1-69.4c0-6.7,35.8-6.1,37-6c0,0,4.9,0.3,9.5,0.5
		C1325.3,900.4,1328.8,897.1,1328.8,892.9L1328.8,892.9z"/>
	<path fill="#CCCCFF" d="M1864.2,725.8l-1.9-13.2l-755,115.1c-0.7,3.1-1.7,8.7-2.4,13.9L1864.2,725.8z"/>
</g>
<g>
	<path fill="#7352FF" d="M461.1,311.8H642c18.4,0,33.3,14.9,33.3,33.3V995H418.2V354.7C418.2,331,437.4,311.8,461.1,311.8z"/>
	<path fill="#99D6FF" d="M451.5,311.8h93.9V995H418.2V345.1C418.2,326.7,433.1,311.8,451.5,311.8z"/>
	<path fill="#8B8BF7" d="M449.3,311.3h96.5v683.2H416.1V344.5C416.1,326.2,431,311.3,449.3,311.3z"/>
	<path fill="#C2BEFC" d="M498.5,561.5h-82.4v-74.9l82.4,0c19.9,0,36.1,16.1,36.1,36.1v2.8C534.6,545.3,518.4,561.5,498.5,561.5z"/>
	<path fill="#7352FF" d="M454.7,442.2h-1.2c-2.9,0-5.3-2.4-5.3-5.3v-39.2c0-2.9,2.4-5.3,5.3-5.3h1.2c2.9,0,5.3,2.4,5.3,5.3v39.2
		C460,439.8,457.6,442.2,454.7,442.2z"/>
	<path fill="#7352FF" d="M485.6,442.2h-0.4c-3.1,0-5.7-2.6-5.7-5.7V398c0-3.1,2.6-5.7,5.7-5.7h0.4c3.1,0,5.7,2.6,5.7,5.7v38.5
		C491.3,439.6,488.8,442.2,485.6,442.2z"/>
	<path fill="#7352FF" d="M455.6,636.2h-2.9c-2.5,0-4.4-2-4.4-4.4v-41c0-2.5,2-4.4,4.4-4.4h2.9c2.5,0,4.4,2,4.4,4.4v41
		C460,634.2,458,636.2,455.6,636.2z"/>
	<path fill="#7352FF" d="M486.7,641.6h-3c-2.3,0-4.2-1.9-4.2-9.7v-41.4c0,3.1,1.9,1.2,4.2,1.2h3c2.6,0,4.6,2.1,4.6,4.6V637
		C491.3,639.6,489.3,641.6,486.7,641.6z"/>
	<path fill="#7352FF" d="M485.6,526.6h-0.4c-3.1,0-5.7-2.6-5.7-5.7v-38.5c0-3.1,2.6-5.7,5.7-5.7h0.4c3.1,0,5.7,2.6,5.7,5.7v38.5
		C491.3,524.1,488.8,526.6,485.6,526.6z"/>
	<path fill="#B1ABFF" d="M479,487v33.5c0,3.4,3.6,6.1,7,6.1s7-2.7,7-6.1V487H479z"/>
	<path fill="#6F36FF" d="M611.8,532h-1.2c-2.9,0-5.3-2.4-5.3-5.3v-39.2c0-2.9,2.4-5.3,5.3-5.3h1.2c2.9,0,5.3,2.4,5.3,5.3v39.2
		C617.2,529.7,614.8,532,611.8,532z"/>
	<path fill="#6F36FF" d="M643.7,532h-1.2c-2.9,0-5.3-2.4-5.3-5.3v-39.2c0-2.9,2.4-5.3,5.3-5.3h1.2c2.9,0,5.3,2.4,5.3,5.3v39.2
		C649.1,529.7,646.7,532,643.7,532z"/>
	<path fill="#7352FF" d="M453.6,949.3h-0.9c-2.5,0-4.4-2-4.4-4.4v-32.4c0-2.5,2-4.4,4.4-4.4h0.9c2.5,0,4.4,2,4.4,4.4v32.4
		C458.1,947.3,456.1,949.3,453.6,949.3z"/>
	<path fill="#6F36FF" d="M611.8,667.7h-1.2c-2.9,0-5.3-2.4-5.3-5.3v-39.2c0-2.9,2.4-5.3,5.3-5.3h1.2c2.9,0,5.3,2.4,5.3,5.3v39.2
		C617.2,665.4,614.8,667.7,611.8,667.7z"/>
	<path fill="#6F36FF" d="M611.8,442.2h-1.2c-2.9,0-5.3-2.4-5.3-5.3v-39.2c0-2.9,2.4-5.3,5.3-5.3h1.2c2.9,0,5.3,2.4,5.3,5.3v39.2
		C617.2,439.8,614.8,442.2,611.8,442.2z"/>
	<path fill="#7352FF" d="M514.5,565.9H514c-3.1,0-5.7-2.6-5.7-5.7v-77.8c0-3.1,2.6-5.7,5.7-5.7h0.4c3.1,0,5.7,2.6,5.7,5.7v77.8
		C520.2,563.4,517.6,565.9,514.5,565.9z"/>
	<path fill="#B1ABFF" d="M520,494.8c-3-2.9-8-5.2-12-6.7v72.1c0,0-0.6,0.1-0.6,0.1c4.9-1.5,9.6-3.8,12.6-6.7V494.8z"/>
	<path fill="#6F36FF" d="M579.3,707.5h-1.2c-2.9,0-5.3-2.4-5.3-5.3v-78.5c0-2.9,2.4-5.3,5.3-5.3h1.2c2.9,0,5.3,2.4,5.3,5.3v78.5
		C584.6,705.1,582.2,707.5,579.3,707.5z"/>
</g>
<g>
	<path fill="#9290F4" d="M417.5,991.2H168.9V630c0-13.5,11-24.5,24.5-24.5H393c13.5,0,24.5,11,24.5,24.5V991.2z"/>
	<path fill="#845CFF" d="M289.5,605.5h108.1c11,0,19.9,12.1,19.9,27.1v358.6H289.1"/>
	<path fill="#845CFF" d="M392.4,606.2H193.9v-4.9c0-12.7,10.3-22.9,22.9-22.9h152.6c12.7,0,22.9,10.3,22.9,22.9V606.2z"/>
	<path opacity="0.2" fill="#7B52FF" d="M290,578.3h86c0,0,0,0,0,0c9,1.7,15.9,9.4,15.9,19.2v8.6H289.7"/>
	<path fill="#845CFF" d="M229.9,678.5h-1c-2.6,0-4.7-2.1-4.7-4.7V635c0-2.6,2.1-4.7,4.7-4.7h1c2.6,0,4.7,2.1,4.7,4.7v38.8
		C234.6,676.4,232.5,678.5,229.9,678.5z"/>
	<path fill="#845CFF" d="M257.8,678.5h-1c-2.6,0-4.7-2.1-4.7-4.7V635c0-2.6,2.1-4.7,4.7-4.7h1c2.6,0,4.7,2.1,4.7,4.7v38.8
		C262.6,676.4,260.4,678.5,257.8,678.5z"/>
	<path fill="#845CFF" d="M257.8,836h-1c-2.6,0-4.7-2.1-4.7-4.7v-38.8c0-2.6,2.1-4.7,4.7-4.7h1c2.6,0,4.7,2.1,4.7,4.7v38.8
		C262.6,833.9,260.4,836,257.8,836z"/>
	<path fill="#845CFF" d="M257.8,909.5h-1c-2.6,0-4.7-2.1-4.7-4.7V866c0-2.6,2.1-4.7,4.7-4.7h1c2.6,0,4.7,2.1,4.7,4.7v38.8
		C262.6,907.4,260.4,909.5,257.8,909.5z"/>
	<path fill="#6F36FF" d="M330.1,680.7h-1c-2.6,0-4.7-2.1-4.7-4.7v-38.8c0-2.6,2.1-4.7,4.7-4.7h1c2.6,0,4.7,2.1,4.7,4.7v38.8
		C334.9,678.5,332.7,680.7,330.1,680.7z"/>
	<path fill="#6F36FF" d="M357.4,680.7h-1c-2.6,0-4.7-2.1-4.7-4.7v-38.8c0-2.6,2.1-4.7,4.7-4.7h1c2.6,0,4.7,2.1,4.7,4.7v38.8
		C362.1,678.5,360,680.7,357.4,680.7z"/>
	<path fill="#6F36FF" d="M385.1,751.8h-1c-2.6,0-4.7-2.1-4.7-4.7v-38.8c0-2.6,2.1-4.7,4.7-4.7h1c2.6,0,4.7,2.1,4.7,4.7V747
		C389.8,749.6,387.7,751.8,385.1,751.8z"/>
	<path fill="#6F36FF" d="M330.1,837h-1c-2.6,0-4.7-2.1-4.7-4.7v-38.8c0-2.6,2.1-4.7,4.7-4.7h1c2.6,0,4.7,2.1,4.7,4.7v38.8
		C334.9,834.9,332.7,837,330.1,837z"/>
</g>
<g>
	<circle fill="#F79B86" cx="245.7" cy="979.6" r="29.8"/>
	<circle fill="#FCB9A7" cx="295.3" cy="969.9" r="31.3"/>
	<circle fill="#FCB9A7" cx="334.1" cy="994.3" r="21"/>
</g>
<g>
	<path display="none" fill="#FF94B9" d="M767.4,649.8h-94.6c-21.6,0-39.1,19-39.1,42.4V988"/>
	<path fill="#947BFF" d="M670.4,649.2H768v338.3H636.1V683.5C636.1,664.6,651.5,649.2,670.4,649.2z"/>
	<path fill="#845CFF" d="M768.2,988.1h142.2V692.3c0-23.4-17.5-42.4-39.1-42.4H767.4"/>
	<path fill="#845CFF" d="M669.8,767.3h-1.7c-3.9,0-7-3.1-7-7v-41.5c0-3.9,3.1-7,7-7h1.7c3.9,0,7,3.1,7,7v41.5
		C676.9,764.2,673.7,767.3,669.8,767.3z"/>
	<path fill="#845CFF" d="M704.1,748.4h-0.9c-2.8,0-5.1-2.3-5.1-5.1v-25.6c0-2.8,2.3-5.1,5.1-5.1h0.9c2.8,0,5.1,2.3,5.1,5.1v25.6
		C709.2,746.1,706.9,748.4,704.1,748.4z"/>
	<path fill="#845CFF" d="M733.9,748.4H733c-2.8,0-5.1-2.3-5.1-5.1v-25.6c0-2.8,2.3-5.1,5.1-5.1h0.9c2.8,0,5.1,2.3,5.1,5.1v25.6
		C739,746.1,736.7,748.4,733.9,748.4z"/>
	<path fill="#845CFF" d="M704.1,830.9h-0.9c-2.8,0-5.1-2.3-5.1-5.1v-25.6c0-2.8,2.3-5.1,5.1-5.1h0.9c2.8,0,5.1,2.3,5.1,5.1v25.6
		C709.2,828.6,706.9,830.9,704.1,830.9z"/>
	<path fill="#845CFF" d="M673.1,830.9h-0.9c-2.8,0-5.1-2.3-5.1-5.1v-25.6c0-2.8,2.3-5.1,5.1-5.1h0.9c2.8,0,5.1,2.3,5.1,5.1v25.6
		C678.2,828.6,675.9,830.9,673.1,830.9z"/>
	<path fill="#7455F2" d="M805.2,749.1h-0.9c-2.8,0-5.1-2.3-5.1-5.1v-25.6c0-2.8,2.3-5.1,5.1-5.1h0.9c2.8,0,5.1,2.3,5.1,5.1V744
		C810.2,746.8,808,749.1,805.2,749.1z"/>
	<path fill="#7455F2" d="M839.6,749.1h-0.9c-2.8,0-5.1-2.3-5.1-5.1v-25.6c0-2.8,2.3-5.1,5.1-5.1h0.9c2.8,0,5.1,2.3,5.1,5.1V744
		C844.7,746.8,842.4,749.1,839.6,749.1z"/>
	<path fill="#7455F2" d="M872.9,749.1h-0.9c-2.8,0-5.1-2.3-5.1-5.1v-25.6c0-2.8,2.3-5.1,5.1-5.1h0.9c2.8,0,5.1,2.3,5.1,5.1V744
		C878,746.8,875.8,749.1,872.9,749.1z"/>
	<path fill="#845CFF" d="M907.1,689.5H635.6c-4.9,0-8.9-4-8.9-8.9v-0.7c0-4.9,4-8.9,8.9-8.9h271.5c4.9,0,8.9,4,8.9,8.9v0.7
		C916,685.5,912,689.5,907.1,689.5z"/>
</g>
<g>
	<circle fill="#F79B86" cx="1023.2" cy="988.6" r="21.2"/>
	<circle fill="#FCB9A7" cx="1069.4" cy="966.5" r="38.2"/>
	<circle fill="#FCB9A7" cx="1115.7" cy="986.4" r="20.4"/>
</g>
<path opacity="0.5" fill="#EAE4FF" d="M1973.8,1116.1H146.3c-38.4,0-69.5-31.1-69.5-69.5V1020h1966.6v26.5
	C2043.4,1084.9,2012.2,1116.1,1973.8,1116.1z"/>
<path fill="#D0CAF9" d="M2079.7,1022.3H50.6c-9.1,0-16.6-7.4-16.6-16.6v-1.3c0-9.1,7.4-16.6,16.6-16.6h2029.1
	c9.1,0,16.6,7.4,16.6,16.6v1.3C2096.2,1014.9,2088.8,1022.3,2079.7,1022.3z"/>
<path fill="#845CFF" d="M679.7,363.5H412.8c-4.9,0-8.8-3.7-8.8-8.2l0,0c0-4.5,3.9-8.2,8.8-9.3h266.9c4.9,1,8.8,4.7,8.8,9.3l0,0
	C688.5,359.8,684.6,363.5,679.7,363.5z"/>
<path fill="#6F36FF" d="M676.6,346H546v17h130.6c6.6,0,12-4,12-8.5l0,0C688.5,350,683.2,346,676.6,346z"/>
<path fill="#DED9FC" d="M1788.8,988.3h149.5v-57.9c0-19-15.4-34.4-34.4-34.4h-115V988.3z"/>
<g>
	<path fill="#CCCCFF" d="M1859.9,988.1h-450.7V842.8c0-23.1,18.7-41.8,41.8-41.8h367.2c23.1,0,41.8,18.7,41.8,41.8V988.1z"/>
	<path fill="#DED9FC" d="M1613.3,988.1H1409V842.8c0-23.1,18.7-41.8,41.8-41.8h162.6V988.1z"/>
	<path fill="#C7C7FF" d="M1445.4,872.1h-0.4c-3.1,0-5.6-2.5-5.6-5.6v-23.5c0-3.1,2.5-5.6,5.6-5.6h0.4c3.1,0,5.6,2.5,5.6,5.6v23.5
		C1451,869.6,1448.5,872.1,1445.4,872.1z"/>
	<path fill="#C7C7FF" d="M1488.2,872.1h-0.4c-3.1,0-5.6-2.5-5.6-5.6v-0.4c0-3.1,2.5-5.6,5.6-5.6h0.4c3.1,0,5.6,2.5,5.6,5.6v0.4
		C1493.8,869.6,1491.3,872.1,1488.2,872.1z"/>
	<path fill="#C7C7FF" d="M1445.4,911.8h-0.4c-3.1,0-5.6-2.5-5.6-5.6v-0.4c0-3.1,2.5-5.6,5.6-5.6h0.4c3.1,0,5.6,2.5,5.6,5.6v0.4
		C1451,909.3,1448.5,911.8,1445.4,911.8z"/>
	<path fill="#BDBBFF" d="M1653.9,913.6h-0.4c-3.1,0-5.6-2.5-5.6-5.6v-63.8c0-3.1,2.5-5.6,5.6-5.6h0.4c3.1,0,5.6,2.5,5.6,5.6V908
		C1659.5,911.1,1657,913.6,1653.9,913.6z"/>
	<path fill="#BDBBFF" d="M1693,913.6h-0.4c-3.1,0-5.6-2.5-5.6-5.6v-63.8c0-3.1,2.5-5.6,5.6-5.6h0.4c3.1,0,5.6,2.5,5.6,5.6V908
		C1698.6,911.1,1696.1,913.6,1693,913.6z"/>
</g>
<g>
	<path fill="#CCCCFF" d="M1837,457.1H2008c23.7,0,42.9,19.2,42.9,42.9v489H1794v-489C1794,476.4,1813.3,457.1,1837,457.1z"/>
	<path fill="#DED9FC" d="M1835.9,456.1h84.1v533h-127V499C1792.9,475.3,1812.2,456.1,1835.9,456.1z"/>
	<path fill="#C7C7FF" d="M1822.7,657.7h-2.2c-2.1,0-3.8-1.7-3.8-3.8v-35.3c0-2.1,1.7-3.8,3.8-3.8h2.2c2.1,0,3.8,1.7,3.8,3.8v35.3
		C1826.5,656,1824.8,657.7,1822.7,657.7z"/>
	<path fill="#C7C7FF" d="M1854.2,657.7h-2.2c-2.1,0-3.8-1.7-3.8-3.8v-35.3c0-2.1,1.7-3.8,3.8-3.8h2.2c2.1,0,3.8,1.7,3.8,3.8v35.3
		C1858,656,1856.3,657.7,1854.2,657.7z"/>
	<path fill="#C7C7FF" d="M1822.7,741.2h-2.2c-2.1,0-3.8-1.7-3.8-3.8v-35.3c0-2.1,1.7-3.8,3.8-3.8h2.2c2.1,0,3.8,1.7,3.8,3.8v35.3
		C1826.5,739.5,1824.8,741.2,1822.7,741.2z"/>
	<path fill="#C7C7FF" d="M1854.2,815.7h-2.2c-2.1,0-3.8-1.7-3.8-3.8v-35.3c0-2.1,1.7-3.8,3.8-3.8h2.2c2.1,0,3.8,1.7,3.8,3.8v35.3
		C1858,814,1856.3,815.7,1854.2,815.7z"/>
	<path fill="#C7C7FF" d="M1854.2,541.6h-2.2c-2.1,0-3.8-1.7-3.8-3.8v-35.3c0-2.1,1.7-3.8,3.8-3.8h2.2c2.1,0,3.8,1.7,3.8,3.8v35.3
		C1858,539.9,1856.3,541.6,1854.2,541.6z"/>
	<path fill="#BDBBFF" d="M1987.9,541.6h-2.2c-2.1,0-3.8-1.7-3.8-3.8v-35.3c0-2.1,1.7-3.8,3.8-3.8h2.2c2.1,0,3.8,1.7,3.8,3.8v35.3
		C1991.7,539.9,1990,541.6,1987.9,541.6z"/>
	<path fill="#BDBBFF" d="M2014.2,541.6h-2.2c-2.1,0-3.8-1.7-3.8-3.8v-35.3c0-2.1,1.7-3.8,3.8-3.8h2.2c2.1,0,3.8,1.7,3.8,3.8v35.3
		C2018,539.9,2016.3,541.6,2014.2,541.6z"/>
	<path fill="#BDBBFF" d="M1987.9,940.8h-2.2c-2.1,0-3.8-1.7-3.8-3.8v-35.3c0-2.1,1.7-3.8,3.8-3.8h2.2c2.1,0,3.8,1.7,3.8,3.8V937
		C1991.7,939.1,1990,940.8,1987.9,940.8z"/>
	<path fill="#BDBBFF" d="M1960.6,940.8h-2.2c-2.1,0-3.8-1.7-3.8-3.8v-35.3c0-2.1,1.7-3.8,3.8-3.8h2.2c2.1,0,3.8,1.7,3.8,3.8V937
		C1964.4,939.1,1962.7,940.8,1960.6,940.8z"/>
	<path fill="#BDBBFF" d="M1987.9,658.2h-2.2c-2.1,0-3.8-1.7-3.8-3.8v-35.3c0-2.1,1.7-3.8,3.8-3.8h2.2c2.1,0,3.8,1.7,3.8,3.8v35.3
		C1991.7,656.5,1990,658.2,1987.9,658.2z"/>
	<path fill="#C7C7FF" d="M1888.6,657.5h-2.2c-2.1,0-3.8-1.7-3.8-3.8V502.5c0-2.1,1.7-3.8,3.8-3.8h2.2c2.1,0,3.8,1.7,3.8,3.8v151.2
		C1892.4,655.8,1890.7,657.5,1888.6,657.5z"/>
	<path fill="#C7C7FF" d="M1872.4,941.3h-2.2c-2.1,0-3.8-1.7-3.8-3.8v-63.9c0-2.1,1.7-3.8,3.8-3.8h2.2c2.1,0,3.8,1.7,3.8,3.8v63.9
		C1876.2,939.6,1874.5,941.3,1872.4,941.3z"/>
	<path fill="#BDBBFF" d="M1961,848.8h-2.2c-2.1,0-3.8-1.7-3.8-3.8v-69c0-2.1,1.7-3.8,3.8-3.8h2.2c2.1,0,3.8,1.7,3.8,3.8v69
		C1964.8,847.1,1963.1,848.8,1961,848.8z"/>
	<path fill="#BDBBFF" d="M1987.7,848.8h-2.2c-2.1,0-3.8-1.7-3.8-3.8v-69c0-2.1,1.7-3.8,3.8-3.8h2.2c2.1,0,3.8,1.7,3.8,3.8v69
		C1991.5,847.1,1989.8,848.8,1987.7,848.8z"/>
</g>
<g>
	<rect x="1793" y="901.7" fill="#9694F7" width="10.4" height="90.1"/>
	<path fill="#A39CFF" d="M1802.4,948.6h-1.6c-22.2,0-40.2-18-40.2-40.2v-94.2c0-11.1,9-20.1,20.1-20.1h1.6c11.1,0,20.1,9,20.1,20.1
		V948.6z"/>
	<circle fill="#A39CFF" cx="1800.2" cy="908.6" r="39.6"/>
	<circle fill="#A39CFF" cx="1799.2" cy="852.8" r="27"/>
	<path fill="#9694F7" d="M1781,794c0,0,0.4-1,0.4-1h0.1c-11.5,0-21.5,10.4-21.5,21.9v91.9c0,15.5,9,29,21,36.2V794z"/>
</g>
<g>
	<path opacity="0.2" fill="#FFFFFF" d="M897.7,828.6h-59.8c-3.3,0-5.9-2.7-5.9-5.9v-0.5c0-3.3,2.7-5.9,5.9-5.9h59.8
		c3.3,0,5.9,2.7,5.9,5.9v0.5C903.6,826,901,828.6,897.7,828.6z"/>
	<g>
		<path opacity="0.2" fill="#FFFFFF" d="M890.3,850.9h-99c-3.3,0-5.9-2.7-5.9-5.9v-0.5c0-3.3,2.7-5.9,5.9-5.9h99
			c3.3,0,5.9,2.7,5.9,5.9v0.5C896.2,848.2,893.5,850.9,890.3,850.9z"/>
		<circle fill="#FCB9A7" cx="800.7" cy="839.6" r="7.3"/>
	</g>
	<rect x="900.3" y="896.6" fill="#F79B86" width="10.6" height="92.1"/>
	<path fill="#FCB9A7" d="M923.4,944.5h-1.6c-22.7,0-41.1-18.4-41.1-41.1v-96.3c0-11.3,9.2-20.6,20.6-20.6h1.6
		c11.3,0,20.6,9.2,20.6,20.6V944.5z"/>
	<circle fill="#FCB9A7" cx="921.1" cy="903.7" r="40.4"/>
	<circle fill="#FCB9A7" cx="920.1" cy="846.6" r="27.6"/>
	<path fill="#F79B86" d="M901,787.5c0,0,1-1.5,0.9-1.5h0.1c-11.8,0-21.1,11.1-21.1,22.9v93.9c0,15.9,8,29.7,20,37V787.5z"/>
	<circle fill="#FCB9A7" cx="838.2" cy="874.6" r="5.2"/>
	<circle fill="#FCB9A7" cx="845.3" cy="816.4" r="6.3"/>
</g>
<g>
	<g>
		<path fill="#FF8DB6" d="M422.4,988.1h-8.7V824c0-2.2,1.8-4.1,4.1-4.1h0.6c2.2,0,4.1,1.8,4.1,4.1V988.1z"/>
		<circle fill="#F9F9FE" cx="418.3" cy="841.4" r="15.5"/>
		<path fill="#FF7AA5" d="M428.2,988.1h-20.3v-26.6c0-5.2,4.2-9.5,9.5-9.5h1.4c5.2,0,9.5,4.2,9.5,9.5V988.1z"/>
	</g>
	<circle opacity="0.3" fill="#FFFFFF" cx="418.4" cy="840.2" r="66.5"/>
</g>
<g>
	<g>
		<path fill="#A39CFF" d="M1618.1,987.1h-8.7V822.9c0-2.2,1.8-4.1,4.1-4.1h0.6c2.2,0,4.1,1.8,4.1,4.1V987.1z"/>
		<circle fill="#F9F9FE" cx="1614" cy="840.4" r="15.5"/>
		<path fill="#A39CFF" d="M1623.9,987.1h-20.3v-26.6c0-5.2,4.2-9.5,9.5-9.5h1.4c5.2,0,9.5,4.2,9.5,9.5V987.1z"/>
	</g>
	<circle opacity="0.3" fill="#FFFFFF" cx="1614" cy="839.1" r="66.5"/>
</g>
<path fill="#393646" d="M1303,489.3"/>
<g>
	<path fill="#C2BEFC" d="M279.1,807c33.3,0,60.2-26.7,60.2-60l0,0c0-33.3-27-60-60.2-60h-40.5c-34.4,0-62.3-27.9-62.3-62.3l0,0
		c0-4.3,0.5-8.6,1.4-12.7c-5.9,4.7-9.7,11.9-9.7,20v180.5c9-3.2,19.2-5.5,29.6-5.5H279.1z"/>
	<path opacity="0.5" fill="#D7F0FF" d="M107.9,897.3L107.9,897.3c0,39.8,25.1,73.6,61.1,85.9V811.4
		C133,823.7,107.9,857.5,107.9,897.3z"/>
</g>
<g>
	<circle fill="#98DEFF" cx="612.7" cy="146.7" r="7.3"/>
</g>
<g>
	<circle fill="#98DEFF" cx="671.7" cy="171.8" r="5.4"/>
</g>
<g>
	<g>
		<path fill="#98DEFF" d="M798.4,300.6h-19.3c-2.4,0-4.3-1.9-4.3-4.3v-20.2c0-2.4,1.9-4.3,4.3-4.3h19.3c2.4,0,4.3,1.9,4.3,4.3v20.2
			C802.8,298.7,800.8,300.6,798.4,300.6z"/>
		<g>
			<line fill="none" stroke="#98DEFF" stroke-width="5" stroke-miterlimit="10" x1="732.3" y1="226.4" x2="779.9" y2="274.4"/>
			<line fill="none" stroke="#98DEFF" stroke-width="5" stroke-miterlimit="10" x1="846.3" y1="226.4" x2="798.7" y2="274.4"/>
			<line fill="none" stroke="#98DEFF" stroke-width="5" stroke-miterlimit="10" x1="788.5" y1="276" x2="788.5" y2="241"/>
		</g>
		<circle fill="#ACDDFC" cx="789" cy="160.8" r="89.5"/>
		<g>
			<path fill="#8B8BF7" d="M775.3,281.2L775.3,281.2c-0.3,0-0.6,0-0.8-0.1c-1.8-0.5-2.5-2.7-1.5-4.2l1.6-2.7c0.3-0.5,1-0.5,1.4,0
				l1.7,2.6C778.8,278.6,777.5,281.1,775.3,281.2C775.3,281.2,775.3,281.2,775.3,281.2z"/>
			<path fill="#8B8BF7" d="M801.3,280.5L801.3,280.5c-0.2,0-0.4,0-0.6-0.1c-1.9-0.4-2.7-2.6-1.7-4.3l1.6-2.7c0.3-0.5,1-0.5,1.4,0
				l1.7,2.7c1.1,1.8,0.1,4.2-2,4.4C801.5,280.5,801.4,280.5,801.3,280.5z"/>
			<path fill="#8B8BF7" d="M788.9,281.5L788.9,281.5c-0.2,0-0.5,0-0.7-0.1c-2-0.4-2.9-2.7-1.8-4.5l1.7-2.8c0.3-0.5,1.1-0.5,1.4,0
				l1.8,2.8c1.2,1.8,0.1,4.4-2.1,4.6C789.1,281.5,789,281.5,788.9,281.5z"/>
		</g>
	</g>
	<path fill="#98DEFF" d="M789,71.3c-49.4,0-89.5,40.1-89.5,89.5c0,9.8,1.6,19.2,4.5,28.2H874c2.9-9,4.5-18.4,4.5-28.2
		C878.5,111.4,838.4,71.3,789,71.3z"/>
	<path fill="#D7F0FF" d="M789,71.3c-49.4,0-89.5,40.1-89.5,89.5c0,9.8,1.6,19.2,4.5,28.2H874c2.9-9,4.5-18.4,4.5-28.2
		C878.5,111.4,838.4,71.3,789,71.3z"/>
	<path fill="#95D1F9" d="M874,189c2.9-9,4.5-18.5,4.5-28.4c0-29.2-14-55.6-35.6-71.6H735.2c-21.7,16-35.6,42.4-35.6,71.6
		c0,9.8,1.6,19.4,4.5,28.4H874z"/>
</g>
<g opacity="0.5">
	<path fill="#D7F0FF" d="M1799.8,299.9h-134.4c-6.5,0-11.8-5.3-11.8-11.8v0c0-6.5,5.3-11.8,11.8-11.8l134.4,0c6.5,0-9,5.3-9,11.8v0
		C1790.8,294.6,1806.2,299.9,1799.8,299.9z"/>
	<circle fill="#D7F0FF" cx="1662.3" cy="282" r="17.6"/>
	<circle fill="#D7F0FF" cx="1697.5" cy="268.8" r="30.4"/>
	<circle fill="#D7F0FF" cx="1799.2" cy="277.5" r="22.1"/>
</g>
<path fill="#BBE7FF" d="M1028.9,174.6c-4,0-7.5,2-9.6,5c-0.8,1.2-2.2,1.7-3.6,1.6c-0.1,0-0.3,0-0.4,0c-0.2,0-0.4,0-0.5,0
	c-1.4,0.1-2.8-0.5-3.6-1.6c-2.1-3-5.6-5-9.6-5c-6.5,0-11.7,5.2-11.7,11.7h0.1c1.7,0,3.1-1.1,3.6-2.7c1.2-3.2,4.3-5.8,8-5.8
	c4.7,0,8.5,4.1,8.5,8.5h0c0,0,0,0.1,0,0.1c0,2.9,2.4,5.3,5.3,5.3s5.3-2.4,5.3-5.3c0-0.3,0-0.6-0.1-0.9c0.4-4.1,4-7.7,8.4-7.7
	c3.7,0,6.8,2.6,8,5.8c0.6,1.6,2,2.7,3.6,2.7h0.1C1040.7,179.8,1035.4,174.6,1028.9,174.6z"/>
<path fill="#BBE7FF" d="M1126.1,411.3c-4,0-7.5,2-9.6,5c-0.8,1.2-2.2,1.7-3.6,1.6c-0.1,0-0.3,0-0.4,0c-0.2,0-0.4,0-0.5,0
	c-1.4,0.1-2.8-0.5-3.6-1.6c-2.1-3-5.6-5-9.6-5c-6.5,0-11.7,5.2-11.7,11.7h0.1c1.7,0,3.1-1.1,3.6-2.7c1.2-3.2,4.3-5.8,8-5.8
	c4.7,0,8.5,4.1,8.5,8.5h0c0,0,0,0.1,0,0.1c0,2.9,2.4,5.3,5.3,5.3c2.9,0,5.3-2.4,5.3-5.3c0-0.3,0-0.6-0.1-0.9c0.4-4.1,4-7.7,8.4-7.7
	c3.7,0,6.8,2.6,8,5.8c0.6,1.6,2,2.7,3.6,2.7h0.1C1137.8,416.5,1132.5,411.3,1126.1,411.3z"/>
<path fill="#BBE7FF" d="M1203.9,367.4c-4,0-7.5,2-9.6,5c-0.8,1.2-2.2,1.7-3.6,1.6c-0.1,0-0.3,0-0.4,0c-0.2,0-0.4,0-0.5,0
	c-1.4,0.1-2.8-0.5-3.6-1.6c-2.1-3-5.6-5-9.6-5c-6.5,0-11.7,5.2-11.7,11.7h0.1c1.7,0,3.1-1.1,3.6-2.7c1.2-3.2,4.3-5.8,8-5.8
	c4.7,0,8.5,4.1,8.5,8.5h0c0,0,0,0.1,0,0.1c0,2.9,2.4,5.3,5.3,5.3c2.9,0,5.3-2.4,5.3-5.3c0-0.3,0-0.6-0.1-0.9c0.4-4.1,4-7.7,8.4-7.7
	c3.7,0,6.8,2.6,8,5.8c0.6,1.6,2,2.7,3.6,2.7h0.1C1215.6,372.6,1210.4,367.4,1203.9,367.4z"/>
<rect x="287.3" y="486.5" fill="#F0F0FF" width="129.1" height="74.8"/>
<path fill="#B1ABFF" d="M289,687.8v118.8c29-4.8,50.2-29.5,50.2-59.4C339.2,717.4,318,692.6,289,687.8z"/>
<g>
	<path opacity="0.3" fill="#A4A4FF" d="M1123.3,627c-2.6,0-4.9-2-5.2-4.7c-4.6-44.1-32.1-70.4-33.2-71.4c-2.1-1.7-2.6-4.7-1.1-6.9
		c1.6-2.4,4.8-3,7.2-1.4c0.3,0.2,32.2,28.8,37.4,78.7c0.3,2.9-1.8,5.4-4.6,5.7C1123.7,627,1123.5,627,1123.3,627z"/>
	<circle fill="#FF7AA5" cx="1123.6" cy="621.8" r="5.2"/>
</g>
<g>
	<path opacity="0.3" fill="#A4A4FF" d="M984,551.9c-1.4,1.3-3.6,1.4-5.1,0.1c-24.4-21.2-52.1-21.6-53.3-21.6c-1.9,0.1-3.7-1.2-4-3.2
		c-0.3-2.1,1.1-4,3.1-4.4c0.3,0,31.5-0.6,59.2,23.4c1.6,1.4,1.7,3.8,0.4,5.3C984.2,551.7,984.1,551.8,984,551.9z"/>
	<circle fill="#FF7AA5" cx="981.5" cy="549" r="3.8"/>
</g>
<circle fill="#6F36FF" cx="1175.2" cy="945.1" r="4.1"/>
<circle fill="#FCB9A7" cx="984.2" cy="949.5" r="9"/>
<circle fill="#98DEFF" cx="572.9" cy="844.5" r="9"/>
<circle fill="#FCB9A7" cx="614.4" cy="860.1" r="9"/>
<circle fill="#98DEFF" cx="661.2" cy="865.3" r="9"/>
<circle fill="#FCB9A7" cx="704.8" cy="859.1" r="9"/>
<circle fill="#98DEFF" cx="745.3" cy="841.4" r="9"/>
<circle fill="#FFBDB0" cx="202.6" cy="948.9" r="6.1"/>
<circle fill="#FFBDB0" cx="340.7" cy="888.7" r="6.1"/>
<circle fill="#98DEFF" cx="555.7" cy="216.6" r="7.6"/>
<circle fill="#6F36FF" cx="1137.5" cy="951" r="6.6"/>
<circle fill="#A39CFF" cx="1729.5" cy="859.6" r="6.6"/>
<circle fill="#6F36FF" cx="1029.7" cy="921.7" r="4.8"/>
<g>
	<ellipse fill="#A39CFF" cx="1497.9" cy="983" rx="22.3" ry="21.5"/>
	<ellipse fill="#BDBBFF" cx="1546.6" cy="960.6" rx="40.1" ry="38.8"/>
	<ellipse fill="#BDBBFF" cx="1595.3" cy="980.8" rx="21.4" ry="20.7"/>
</g>
<path fill="#B1ABFF" d="M2096.6,1004.5H34.5v-0.6c0-8.9,7.2-16,16-16h2030.1c8.9,0,16,7.2,16,16V1004.5z"/>
<g>
	<path fill="#6F36FF" d="M1377.3,932.6L1377.3,932.6c-14-21-37.5-33.6-62.7-33.6h-15.4c-24.5,0-47.7,10.5-64,28.7l-8.3,9.4h-7.1
		c-6.8,0-12.3,5.5-12.3,12.3V963c0,6.8,5.5,12.3,12.3,12.3h211.6c5.5,0,9.9-4.4,9.9-9.9v-2.2c0-14.4-11.7-26-26-26h-29.4
		C1382.4,937.2,1379.2,935.5,1377.3,932.6z"/>
	<g>
		<circle fill="#572BE0" cx="1258.4" cy="968.7" r="18.5"/>
		<circle fill="#A39CFF" cx="1258.4" cy="968.7" r="11.8"/>
		<circle fill="#572BE0" cx="1258.4" cy="968.7" r="4.1"/>
	</g>
	<g>
		<circle fill="#572BE0" cx="1372" cy="968.7" r="18.5"/>
		<circle fill="#A39CFF" cx="1372" cy="968.7" r="11.8"/>
		<circle fill="#572BE0" cx="1372" cy="968.7" r="4.1"/>
	</g>
	<path fill="#98DEFF" d="M1225.4,955.2c-1.2-1.5-3-2.3-4.9-2.3h-12.9c-0.5,0-0.9,0.4-0.9,0.9v9.2c0,0.3,0,0.3,0,1.3l14.5,0.1
		C1225.3,964.3,1228.4,959.1,1225.4,955.2z"/>
	<path fill="#98DEFF" d="M1423,958.5c0,3,2.4,5.5,5.4,5.5h12.6v-0.8c0-3.6-0.5-7.2-1.8-10.2h-10.8C1425.4,953,1423,955.5,1423,958.5
		z"/>
	<path fill="#8A77F7" d="M1245.4,937h107.1c-9.1-15-21.6-24-35.9-29H1299c-21.3,0-41.5,7.5-55.6,23.4l-0.4,0.1
		C1240.8,933.7,1242.3,937,1245.4,937z"/>
	<path opacity="0.3" fill="#FAFAFE" d="M1290.4,929.5h-15.5c-1,0-1.8-0.8-1.8-1.8v-0.1c0-1,0.8-1.8,1.8-1.8h15.5
		c1,0,1.8,0.8,1.8,1.8v0.1C1292.2,928.8,1291.4,929.5,1290.4,929.5z"/>
	<path fill="#BFBDFF" d="M1338.7,929.5h-15.5c-1,0-1.8-0.8-1.8-1.8v-0.1c0-1,0.8-1.8,1.8-1.8h15.5c1,0,1.8,0.8,1.8,1.8v0.1
		C1340.5,928.8,1339.7,929.5,1338.7,929.5z"/>
	<path fill="#A39CFF" d="M1308.5,907.1v30.1h61.9c-2.2-3.8-4.8-7.2-7.7-10.3c-11.9-12.9-28.8-19.8-46.4-19.8H1308.5z"/>
	<circle fill="#6F36FF" cx="1358.4" cy="936.4" r="5.6"/>
	<rect x="1306.7" y="905" fill="#6F36FF" width="6.9" height="34.1"/>
</g>
<path fill="#FF8DB6" d="M546.1,987.4h-5.2V811.2c0-1.4,1.1-2.5,2.5-2.5h0.2c1.4,0,2.5,1.1,2.5,2.5V987.4z"/>
<path fill="#FF8DB6" d="M771.2,987.4H766V811.2c0-1.4,1.1-2.5,2.5-2.5h0.2c1.4,0,2.5,1.1,2.5,2.5V987.4z"/>
<path fill="none" stroke="#825AFF" stroke-width="4" stroke-linecap="round" stroke-miterlimit="10" d="M543.5,808.3
	c0,0,39.6,43.1,112.4,43.1s112.4-42.1,112.4-42.1"/>
<path opacity="0.3" fill="#FAFAFE" d="M1336.6,930.1h-11.7c-1,0-1.8-0.8-1.8-1.8v-0.1c0-1,0.8-1.8,1.8-1.8h11.7c1,0,1.8,0.8,1.8,1.8
	v0.1C1338.4,929.3,1337.6,930.1,1336.6,930.1z"/>
</svg>
